<?xml version="1.0" standalone="no"?>
<!DOCTYPE svg PUBLIC "-//W3C//DTD SVG 20010904//EN"
 "http://www.w3.org/TR/2001/REC-SVG-20010904/DTD/svg10.dtd">
<svg version="1.0" xmlns="http://www.w3.org/2000/svg"
 width="300.000000pt" height="238.000000pt" viewBox="0 0 300.000000 238.000000"
 preserveAspectRatio="xMidYMid meet">
<metadata>
Created by potrace 1.10, written by Peter Selinger 2001-2011
</metadata>
<g transform="translate(0.000000,238.000000) scale(0.100000,-0.100000)"
fill="#000000" stroke="none">
<path d="M1495 2139 c-4 -5 -10 -7 -15 -4 -5 3 -13 -2 -18 -11 -8 -15 -14 -16
-40 -5 -35 14 -72 7 -72 -15 0 -8 -10 -14 -22 -14 -12 0 -32 -10 -45 -22 -20
-19 -26 -20 -33 -8 -7 12 -17 9 -53 -17 -33 -24 -47 -29 -55 -21 -9 9 -12 9
-12 -1 0 -19 -91 -101 -111 -101 -11 0 -19 -12 -23 -35 -7 -33 -25 -49 -27
-22 0 16 -20 -32 -23 -59 -3 -18 2 -21 35 -18 21 1 43 5 49 9 13 8 42 -14 34
-26 -8 -14 -36 -11 -28 4 5 9 4 9 -6 0 -19 -17 -4 -30 29 -25 26 4 29 7 21 22
-12 22 -13 51 -2 48 4 -2 17 7 30 20 16 16 18 22 7 22 -8 0 -15 5 -15 11 0 5
5 7 12 3 7 -4 8 -3 4 4 -4 7 -2 12 5 12 7 0 10 3 7 6 -4 3 -16 0 -28 -6 -18
-10 -21 -9 -18 2 3 7 19 13 36 13 39 0 42 10 5 20 -23 5 -32 1 -54 -26 -19
-24 -28 -29 -32 -18 -4 10 -6 9 -6 -5 -1 -14 4 -17 20 -13 18 5 17 3 -6 -19
-14 -13 -32 -24 -39 -24 -6 0 -17 -5 -23 -11 -8 -8 -13 -8 -17 0 -11 17 4 33
24 28 11 -3 21 1 24 9 3 8 1 14 -4 14 -6 0 -10 5 -10 11 0 5 5 7 10 4 6 -4 10
-3 9 2 -4 23 3 33 24 33 12 0 28 9 35 20 7 11 27 27 45 35 24 11 26 14 7 9
-24 -5 -24 -4 -6 10 11 9 27 17 35 18 9 0 21 2 28 2 6 1 21 10 33 21 16 15 25
17 38 8 9 -6 15 -19 14 -29 -2 -11 -1 -16 4 -12 4 4 14 2 22 -5 12 -9 11 -5
-2 21 -10 19 -15 36 -12 40 3 3 6 2 6 -2 0 -3 14 0 30 9 17 9 30 20 30 26 0 7
6 7 16 -2 15 -12 14 -15 -6 -31 -25 -20 -19 -24 12 -7 29 16 43 -9 20 -35 -16
-18 -16 -18 5 -5 13 7 24 18 27 24 5 14 -24 49 -49 59 -19 7 -19 8 -2 17 20
12 58 8 57 -5 -1 -5 5 -13 14 -18 9 -5 14 -13 12 -17 -3 -4 5 -8 16 -8 11 -1
26 -10 34 -20 13 -16 13 -15 3 10 -7 15 -18 27 -25 27 -16 0 -24 23 -14 40 6
10 10 9 16 -3 7 -11 14 -13 24 -7 10 7 11 10 3 10 -7 0 -13 5 -13 10 0 6 3 10
8 10 17 -1 31 -17 36 -45 3 -17 3 -24 0 -17 -3 6 -10 9 -15 6 -6 -3 -3 -11 7
-18 16 -12 15 -15 -6 -44 -17 -23 -29 -30 -49 -28 -14 2 -19 1 -11 -1 8 -3 -4
-11 -29 -20 l-43 -14 -29 32 c-16 18 -29 29 -29 25 0 -5 -7 -3 -15 4 -9 7 -15
8 -15 2 0 -5 12 -18 28 -28 39 -26 52 -40 52 -60 0 -15 4 -14 28 8 28 27 68
38 90 25 7 -5 12 -3 12 7 0 21 31 49 42 38 6 -6 19 -5 34 2 26 12 30 21 12 32
-6 4 -8 3 -5 -2 3 -6 -3 -15 -13 -22 -14 -9 -21 -8 -30 3 -8 10 -7 16 5 23 16
8 16 11 1 40 -21 40 -20 45 3 30 10 -6 17 -19 14 -27 -4 -14 -3 -14 9 -1 13
16 70 21 83 8 4 -4 16 -1 27 5 16 10 22 8 40 -13 l20 -24 -34 -30 c-18 -17
-33 -37 -33 -45 0 -9 -21 -26 -47 -38 -25 -12 -53 -32 -62 -45 -11 -16 -19
-19 -27 -11 -13 13 22 49 68 69 17 8 34 18 38 24 8 13 -1 13 -27 -1 -15 -8
-23 -8 -32 2 -8 9 -7 11 7 6 9 -4 17 -2 17 3 0 11 -23 13 -33 3 -4 -3 -2 -11
3 -18 7 -8 0 -20 -24 -41 -41 -36 -66 -42 -66 -15 0 11 -4 22 -9 25 -4 3 -8
-4 -7 -17 1 -16 -4 -21 -17 -19 -24 4 -89 -17 -82 -28 2 -4 16 -7 31 -7 16 0
21 2 14 7 -20 12 8 17 57 10 49 -8 82 -33 80 -61 -2 -24 -11 -24 -45 1 -15 10
-40 22 -57 25 l-30 5 30 -11 c17 -7 47 -25 67 -41 35 -28 38 -33 33 -71 -5
-42 -5 -42 5 -7 5 19 7 42 4 52 -3 9 -1 19 4 21 12 8 36 -9 29 -20 -9 -14 43
-7 57 7 8 10 6 10 -10 1 -17 -8 -25 -7 -33 3 -13 15 0 63 15 59 5 -2 9 2 9 7
0 6 7 15 15 20 10 7 11 10 3 10 -14 0 -53 -35 -53 -48 0 -5 -7 -9 -15 -9 -10
0 -15 10 -15 28 0 32 26 55 91 84 24 11 48 25 52 32 5 8 12 11 18 8 5 -4 9 -2
9 4 0 5 -6 11 -12 14 -8 3 -3 9 12 15 21 9 22 11 5 11 -14 1 -16 4 -7 13 20
20 62 -6 62 -39 0 -22 -2 -25 -10 -13 -8 13 -10 12 -10 -2 0 -10 5 -18 12 -18
6 0 3 -7 -8 -15 -17 -13 -17 -14 -1 -15 9 0 18 5 18 10 1 6 2 15 3 20 2 17 29
30 51 24 16 -4 17 -3 5 5 -8 6 -23 8 -34 5 -12 -4 -16 -2 -12 5 9 15 86 5 105
-13 14 -15 12 -16 -22 -16 -20 0 -37 -4 -37 -8 0 -4 15 -6 33 -4 18 2 48 0 67
-6 34 -8 38 -17 28 -52 -3 -8 -3 -11 0 -7 2 4 10 3 18 -4 8 -6 12 -15 9 -19
-3 -5 0 -12 6 -16 8 -4 9 -3 5 4 -5 8 2 12 18 12 14 0 26 -5 26 -12 0 -9 3 -9
12 0 17 17 45 15 52 -4 3 -8 -1 -26 -10 -40 -16 -23 -15 -24 6 -24 16 0 20 -4
16 -16 -3 -8 -2 -12 3 -9 5 3 12 1 16 -5 3 -5 -1 -10 -9 -10 -8 0 -18 -5 -21
-10 -4 -7 3 -8 21 -4 21 5 25 4 19 -6 -6 -10 -4 -11 11 -5 25 10 277 44 334
45 48 0 127 -22 223 -62 70 -29 97 -51 97 -77 0 -22 -43 -62 -89 -80 -17 -8
-31 -17 -31 -21 0 -15 -97 -70 -192 -110 -96 -40 -179 -53 -193 -30 -4 6 -11
8 -16 4 -11 -6 -109 24 -109 35 0 3 7 16 15 28 13 18 20 20 44 13 16 -4 32 -6
35 -3 3 3 4 -4 3 -16 -1 -21 -15 -27 -33 -13 -5 4 -1 -1 9 -10 10 -9 29 -15
45 -13 15 1 32 -2 39 -7 7 -5 18 -6 25 -2 7 5 24 7 38 6 24 -3 24 -2 6 13 -24
18 -47 20 -43 3 1 -7 -5 -11 -13 -9 -8 2 -21 4 -29 5 -7 2 -17 10 -23 19 -10
19 -8 19 79 18 43 0 51 2 48 17 -1 9 -9 15 -16 13 -18 -5 -25 -5 -83 2 -51 6
-64 12 -52 25 10 9 199 7 223 -3 10 -4 36 -10 58 -12 32 -3 38 -2 28 8 -10 10
-8 19 14 41 22 23 24 28 9 28 -9 0 -15 -4 -12 -9 3 -4 -2 -15 -12 -24 -18 -17
-39 -16 -135 3 -26 6 -64 10 -83 10 -21 0 -33 4 -29 10 3 6 17 10 31 10 13 0
24 5 24 11 0 6 7 8 16 5 9 -4 24 -1 32 6 13 11 15 10 9 -4 -5 -15 -3 -16 20
-7 15 5 73 9 130 8 75 -2 107 1 116 11 10 10 9 12 -5 7 -16 -6 -23 6 -20 34 1
3 -12 6 -28 6 -24 0 -27 -3 -17 -18 6 -10 16 -15 22 -12 5 4 7 2 2 -2 -8 -9
-40 -8 -192 5 -64 5 -83 9 -67 15 18 6 20 10 10 16 -9 6 -3 9 17 9 17 0 54 3
84 7 40 4 52 3 47 -5 -5 -8 -2 -10 8 -6 9 3 16 1 16 -5 0 -6 7 -11 15 -11 29
0 3 30 -32 36 -23 4 -37 13 -40 25 -6 22 -8 23 -36 7 -28 -14 -77 -20 -77 -9
0 5 12 14 28 20 25 10 25 10 -8 5 -19 -4 -38 -11 -41 -17 -4 -5 -20 -7 -35 -3
-28 6 -28 6 -6 -7 22 -13 22 -14 5 -33 -29 -31 -83 -65 -93 -59 -15 10 -12 25
6 25 8 0 12 5 9 10 -5 8 -11 8 -19 1 -7 -6 -16 -8 -19 -4 -4 3 -7 1 -7 -5 0
-7 9 -21 19 -31 20 -20 18 -31 -6 -31 -7 0 -13 7 -13 15 0 16 -41 30 -62 22
-8 -4 -7 -6 4 -6 31 -2 58 -33 58 -68 0 -17 -4 -34 -9 -38 -10 -5 -15 6 -26
62 -6 31 -6 31 -118 51 -106 20 -370 37 -317 21 24 -7 24 -7 2 -8 -12 -1 -41
-10 -63 -22 -23 -11 -47 -18 -55 -15 -8 3 -13 2 -10 -3 7 -11 -18 -21 -47 -20
-17 1 -15 3 8 9 19 5 -13 8 -85 7 -81 0 -102 -2 -70 -7 44 -7 44 -7 9 -8 -21
-1 -62 10 -100 27 -35 16 -75 31 -89 34 l-25 4 25 2 c14 0 49 -10 78 -24 29
-13 51 -21 48 -16 -3 5 -19 14 -36 21 -25 10 -28 15 -19 27 14 17 -2 39 -21
28 -8 -5 -7 -11 2 -23 11 -14 10 -15 -12 -9 -14 4 -72 9 -130 11 -88 3 -93 2
-30 -3 l75 -7 -90 -4 -90 -4 95 -5 95 -6 -110 -6 c-142 -7 -186 -26 -197 -83
-6 -28 -5 -42 4 -48 10 -6 10 -8 0 -8 -9 0 -12 -10 -10 -27 2 -23 8 -28 32
-30 16 -1 33 -8 37 -15 5 -7 9 -9 9 -5 0 5 7 1 16 -8 9 -8 14 -22 11 -29 -3
-7 -1 -18 5 -24 8 -8 8 -16 -2 -27 -8 -10 -9 -15 -1 -15 6 0 11 -17 11 -39 0
-26 5 -41 16 -45 24 -9 27 -8 20 11 -4 9 -1 20 5 24 9 5 8 12 -4 24 -19 19
-22 42 -6 47 6 2 5 14 -5 33 -17 32 -22 115 -7 115 5 0 14 -7 21 -15 19 -23
46 -18 69 11 l21 27 0 -25 c0 -47 -53 -65 -94 -30 -20 17 -20 17 -5 -8 19 -29
61 -38 96 -19 20 11 25 10 38 -7 8 -10 15 -25 15 -31 0 -7 5 -13 11 -13 7 0 8
-7 4 -17 -11 -28 -13 -63 -4 -63 5 0 10 12 10 28 1 24 2 23 8 -8 4 -20 10 -40
14 -46 10 -16 -39 -35 -107 -41 -34 -3 -63 -8 -66 -10 -3 -3 24 -3 60 -1 72 6
135 31 124 51 -4 7 -3 9 1 4 5 -4 17 0 27 10 10 9 18 11 18 5 0 -18 -61 -59
-105 -71 -89 -24 -182 -4 -232 50 -31 34 -60 104 -72 174 -9 60 -29 122 -30
96 -1 -11 -4 -11 -16 -1 -21 18 -19 28 8 25 14 -1 32 10 48 28 16 18 44 34 75
42 70 19 24 17 -71 -3 l-80 -17 -3 -38 c-3 -31 1 -42 22 -58 19 -15 26 -29 25
-52 -1 -32 -1 -32 -13 8 -8 28 -18 41 -33 43 -21 3 -33 27 -33 72 0 18 -3 21
-12 12 -8 -8 -21 -4 -51 20 -36 28 -38 33 -21 40 16 7 15 8 -5 4 -24 -5 -36 2
-78 46 -14 15 -35 30 -47 34 -12 3 -29 13 -38 21 -12 11 -21 12 -35 4 -14 -8
-14 -10 -3 -11 13 0 13 -1 0 -11 -13 -9 -13 -10 0 -6 8 2 14 10 13 16 -5 18 8
13 34 -15 l25 -27 -47 6 c-50 7 -138 -14 -165 -40 -13 -12 -10 -14 25 -11 28
2 39 7 37 17 -2 11 10 12 64 6 78 -8 96 -14 88 -26 -3 -5 6 -9 20 -9 14 0 26
-4 26 -8 0 -5 -64 -12 -142 -16 -79 -4 -159 -11 -178 -15 l-35 -9 30 -2 c17
-1 42 -1 56 0 15 0 35 -7 45 -17 16 -17 17 -17 11 0 -6 15 2 17 81 17 97 -1
215 -23 172 -33 -14 -3 -32 -6 -40 -6 -8 0 -26 -2 -40 -4 -79 -14 -99 -18
-142 -29 -41 -10 -45 -13 -30 -24 10 -7 23 -9 32 -4 44 24 320 48 320 28 0
-10 -42 -27 -52 -21 -5 2 -8 -1 -8 -7 0 -8 -24 -10 -75 -8 -49 2 -71 0 -64 -7
5 -5 46 -12 89 -14 81 -3 92 -9 65 -31 -8 -7 -15 -17 -15 -23 0 -5 9 0 20 13
11 13 20 27 20 32 0 4 9 8 20 8 10 0 31 5 45 12 22 10 28 9 36 -3 19 -30 9
-47 -33 -62 -141 -48 -169 -48 -287 -3 -111 43 -146 61 -195 100 -22 17 -60
42 -85 56 -51 28 -64 50 -30 50 30 0 19 9 -15 12 -46 4 -26 31 54 71 141 70
299 100 330 62 7 -8 18 -15 24 -15 6 0 4 4 -4 10 -27 17 -6 18 65 4 39 -7 99
-13 135 -14 39 0 60 -4 52 -9 -10 -6 -9 -10 7 -14 14 -3 21 0 21 9 0 8 7 14
15 14 8 0 15 8 15 17 0 13 -3 14 -12 5 -17 -17 -118 -15 -224 4 -173 30 -257
19 -421 -57 -65 -29 -84 -43 -89 -63 -8 -34 19 -70 78 -104 25 -15 70 -44 100
-65 30 -20 94 -54 143 -74 119 -49 184 -53 290 -21 113 35 131 25 70 -36 -24
-25 -33 -40 -28 -53 5 -14 9 -11 15 15 5 17 13 32 18 32 5 0 16 7 24 16 17 16
18 15 20 -27 1 -20 -2 -25 -12 -21 -10 3 -13 0 -10 -9 3 -8 12 -13 22 -11 9 2
16 -4 16 -11 0 -8 7 -20 15 -27 14 -11 11 -17 -20 -45 -19 -18 -35 -37 -35
-43 0 -11 38 -8 49 4 3 4 -2 4 -11 1 -10 -4 -18 -2 -18 3 0 13 50 50 69 50 14
0 14 -2 1 -10 -13 -9 -13 -11 0 -19 9 -6 19 -6 26 0 12 10 44 2 44 -11 0 -4
-7 -13 -15 -20 -13 -11 -14 -10 -9 5 6 15 4 16 -14 6 -12 -7 -22 -16 -22 -20
0 -14 25 -20 41 -10 29 18 40 3 17 -23 -17 -17 -22 -48 -9 -48 6 0 14 12 18
28 l6 27 7 -25 c4 -14 4 -45 1 -70 -4 -25 -2 -57 3 -71 8 -21 5 -33 -14 -60
-16 -22 -18 -29 -7 -20 10 8 20 12 22 9 9 -8 -6 -38 -19 -38 -6 0 -12 -9 -12
-19 0 -16 3 -17 14 -9 11 9 12 6 7 -18 -5 -23 -4 -26 5 -14 9 12 11 10 6 -12
-3 -14 -8 -34 -11 -45 -3 -10 1 -5 9 11 7 16 14 52 15 79 1 55 4 63 21 52 8
-5 10 -21 6 -48 -6 -37 -5 -39 11 -26 9 8 14 9 10 3 -4 -7 2 -14 16 -18 20 -5
22 -11 22 -68 0 -35 -4 -69 -9 -77 -5 -7 -32 -24 -60 -36 -56 -25 -82 -48 -71
-65 3 -5 1 -10 -4 -10 -6 0 -11 -9 -11 -20 0 -25 -15 -26 -37 -1 -9 11 -20 18
-24 15 -17 -10 -42 46 -36 81 3 19 2 37 -3 40 -11 7 -24 -51 -14 -67 5 -9 4
-10 -4 -3 -13 12 -35 142 -27 155 3 6 0 7 -8 5 -7 -3 -22 4 -32 15 -19 21 -35
13 -35 -20 0 -12 2 -13 9 -1 5 7 14 10 20 7 6 -4 9 -12 6 -17 -3 -5 1 -6 9 -3
9 4 16 1 16 -6 0 -9 -11 -11 -35 -7 -30 5 -38 2 -52 -19 -13 -20 -14 -27 -3
-37 8 -7 10 -7 7 -1 -4 6 0 20 8 30 8 10 15 15 15 9 1 -5 3 -19 5 -29 2 -11
-3 -32 -12 -47 -15 -26 -15 -32 4 -91 15 -43 18 -67 11 -75 -5 -7 -8 -26 -6
-44 2 -17 0 -29 -4 -28 -11 6 -43 -43 -43 -66 -1 -13 6 -21 17 -21 22 0 22 1
2 20 -8 9 -12 20 -9 26 9 14 56 13 53 -1 -2 -6 3 -14 11 -17 11 -3 12 0 6 14
-5 11 -9 34 -9 52 0 22 -2 28 -8 20 -6 -9 -8 -7 -6 7 2 11 9 21 16 21 6 1 22
2 35 3 l22 2 -22 9 c-12 5 -29 23 -38 40 -19 36 -33 144 -16 120 7 -10 11 -11
11 -2 0 6 5 12 11 12 6 0 8 -7 5 -17 -7 -17 -6 -17 11 -1 13 14 14 21 5 30 -8
8 -15 8 -26 -1 -11 -10 -14 -7 -12 14 1 20 5 24 21 19 16 -5 18 -4 8 7 -7 7
-13 17 -13 21 0 13 30 9 31 -4 1 -13 2 -20 15 -84 3 -19 1 -34 -5 -38 -6 -4
-11 -12 -11 -19 0 -6 6 -2 14 8 12 17 16 17 30 6 9 -8 15 -20 12 -26 -3 -8 2
-11 15 -8 18 5 24 -4 20 -34 -1 -7 2 -13 8 -13 11 0 9 -14 -11 -60 -9 -19 -18
-42 -20 -50 -4 -10 -8 -5 -13 13 -4 17 -3 39 4 53 11 24 10 24 -14 8 -19 -13
-22 -20 -15 -39 5 -13 6 -26 3 -29 -4 -3 0 -6 8 -6 11 0 11 -2 -1 -10 -23 -15
-32 -12 -25 10 5 15 3 18 -9 14 -18 -7 -21 -20 -6 -29 5 -3 6 -13 3 -22 -4
-10 -2 -14 5 -9 17 10 23 -10 7 -24 -8 -7 -15 -23 -15 -37 0 -13 -4 -22 -8
-19 -4 2 -8 -4 -8 -14 0 -10 5 -18 11 -17 5 1 9 -11 8 -28 -2 -23 0 -26 7 -15
6 8 8 32 4 52 -3 20 -2 47 1 59 7 22 8 22 22 3 14 -18 15 -18 8 6 -11 38 -11
42 0 46 6 2 19 -9 28 -26 14 -22 15 -30 5 -31 -7 0 -3 -4 10 -10 14 -5 20 -13
16 -20 -4 -7 -3 -9 4 -5 6 3 14 2 17 -4 4 -6 16 -8 27 -4 17 5 20 3 16 -14 -5
-18 -3 -19 13 -9 21 13 25 32 7 43 -7 4 -8 3 -4 -4 13 -22 -12 -12 -27 11
l-16 22 4 -24 c4 -23 4 -23 -17 -5 -33 30 -50 81 -43 126 6 31 10 37 20 28 10
-8 15 -8 21 1 4 7 3 9 -4 5 -17 -10 -23 10 -7 24 9 8 13 21 9 36 -7 27 -2 29
27 14 26 -14 26 -71 -1 -95 -11 -10 -20 -23 -20 -29 1 -6 10 0 21 13 11 13 22
22 24 19 3 -3 6 -29 8 -59 1 -39 7 -58 20 -68 10 -7 16 -19 13 -26 -2 -7 2
-16 10 -19 9 -3 13 -10 10 -15 -5 -7 18 -14 81 -23 7 -1 10 -5 7 -10 -3 -5
-11 -5 -17 -2 -7 4 -9 4 -5 -1 4 -4 3 -14 -3 -22 -7 -8 -8 -13 -1 -13 5 0 15
7 22 15 17 21 44 20 36 -1 -6 -14 -4 -15 9 -4 14 11 17 10 22 -8 3 -12 10 -19
15 -16 5 3 18 -2 28 -11 12 -11 20 -13 25 -6 8 13 -3 33 -15 26 -4 -3 -13 1
-19 9 -8 9 -6 31 7 84 10 40 14 72 9 72 -5 0 -6 10 -2 23 3 12 7 28 7 35 1 7
21 27 45 43 30 21 43 37 43 54 0 13 4 26 10 30 5 3 6 13 3 21 -4 11 -10 4 -19
-23 -13 -38 -100 -127 -136 -139 -10 -3 -18 -12 -18 -20 0 -12 6 -11 30 6 34
24 41 13 10 -15 -26 -24 -26 -39 1 -24 20 10 21 9 15 -17 -4 -16 -11 -46 -15
-67 -5 -21 -11 -40 -14 -43 -11 -11 -48 18 -66 54 -11 20 -20 31 -21 25 0 -7
-5 -13 -10 -13 -6 0 -9 3 -8 8 1 4 -2 24 -6 45 -6 28 -13 37 -29 37 -20 0 -20
-1 -2 -13 10 -8 15 -19 11 -25 -4 -6 -2 -21 4 -32 13 -24 5 -41 -14 -34 -20 8
-39 60 -33 85 4 13 -2 32 -15 50 -19 25 -21 41 -19 116 1 47 6 94 11 104 8 15
58 39 81 39 18 0 3 -26 -25 -43 -15 -10 -26 -20 -23 -23 8 -8 77 37 87 56 16
30 11 34 -11 9 -19 -23 -20 -23 -9 -2 5 12 17 26 25 31 9 4 18 25 22 45 4 30
3 37 -11 37 -20 0 -21 39 -1 46 37 14 107 -71 75 -91 -5 -3 -10 -22 -10 -41 0
-19 -5 -34 -11 -34 -8 0 -9 16 -5 47 6 47 6 47 -7 18 -17 -37 -29 -117 -16
-109 5 3 9 12 9 20 0 8 7 14 16 14 11 0 14 -5 9 -17 -5 -14 -4 -15 6 -6 7 7
13 33 14 58 1 64 20 79 40 31 9 -21 13 -46 10 -57 -4 -10 -2 -19 4 -19 6 0 14
-12 17 -26 5 -17 9 -22 14 -13 5 6 15 9 24 6 10 -4 16 -1 16 8 0 9 -10 15 -24
15 -24 0 -43 25 -26 35 5 3 24 -2 42 -12 18 -9 39 -17 46 -17 34 -2 30 -63 -7
-93 -8 -7 -12 -16 -8 -19 12 -13 34 16 47 60 9 32 17 43 29 41 9 -2 22 -4 29
-4 7 -1 12 -16 12 -40 0 -22 5 -43 10 -46 15 -9 12 -25 -4 -19 -21 8 -12 -33
23 -101 17 -33 36 -60 42 -60 7 0 13 -10 14 -23 2 -26 2 -26 -34 -8 -41 22
-58 54 -54 101 3 30 2 36 -6 25 -9 -12 -13 -13 -20 -2 -6 11 -10 10 -15 -3 -9
-25 -7 -32 5 -15 8 12 10 9 6 -12 -2 -15 -1 -29 3 -30 4 -2 11 -14 15 -27 5
-17 4 -21 -5 -16 -7 4 -13 -1 -17 -14 -3 -11 -10 -18 -15 -15 -6 4 -14 1 -18
-6 -9 -15 8 -70 21 -70 5 0 9 -8 10 -17 0 -10 5 -3 10 16 9 31 2 61 -8 34 -7
-19 -20 -16 -26 6 -6 26 2 34 22 19 9 -7 13 -9 9 -4 -3 4 3 17 14 28 l21 21
17 -23 c10 -13 22 -20 28 -16 6 3 13 2 16 -3 3 -5 15 -7 26 -4 11 3 20 1 20
-5 0 -12 -28 -24 -40 -17 -4 3 -13 -2 -20 -10 -7 -8 -16 -12 -21 -9 -5 3 -12
-9 -15 -26 -4 -17 -11 -33 -15 -36 -5 -3 -9 -11 -9 -17 0 -7 4 -6 10 3 8 12
10 11 10 -7 0 -12 4 -24 8 -27 5 -3 8 15 7 39 -2 41 1 46 28 60 37 19 43 19
28 1 -9 -10 -8 -15 2 -19 7 -3 19 4 26 15 7 11 8 17 2 13 -6 -3 -11 -2 -11 3
0 13 26 33 33 26 3 -4 9 5 13 20 3 14 10 23 15 20 6 -3 8 5 5 18 -6 31 -41
126 -49 135 -12 11 -7 33 7 33 8 0 16 7 19 15 4 8 15 12 26 10 22 -4 35 8 50
48 7 18 7 26 1 22 -6 -3 -10 1 -10 10 0 9 -4 13 -10 10 -14 -9 -13 77 1 112
l12 28 7 -25 c7 -21 8 -22 10 -5 1 11 7 -1 14 -26 7 -25 25 -59 42 -75 16 -16
26 -25 22 -20 -5 6 -8 16 -8 23 0 10 5 11 19 3 14 -7 22 -7 26 0 5 8 11 7 20
0 12 -10 13 -6 5 19 -10 35 1 40 28 13 10 -10 24 -16 30 -14 18 6 15 -6 -8
-30 l-20 -22 -1 30 c-1 16 -5 2 -9 -31 -3 -33 -5 -62 -3 -65 2 -2 15 8 29 23
14 15 29 25 35 22 5 -4 9 -1 9 5 0 6 5 8 10 5 6 -3 10 -3 10 2 0 4 7 17 15 27
14 19 15 19 35 1 20 -18 28 -41 10 -30 -6 4 -10 -8 -10 -29 0 -49 16 -45 23 5
6 44 0 72 -13 64 -5 -3 -12 0 -15 6 -5 6 0 10 11 9 38 -4 54 0 73 22 l21 21
20 -44 c11 -24 20 -57 21 -74 1 -17 3 -23 6 -12 7 27 23 10 23 -25 0 -30 -1
-30 -18 -14 -18 15 -20 14 -37 -24 -10 -22 -22 -40 -27 -40 -5 0 -6 6 -2 13 6
9 4 10 -7 0 -24 -23 -31 -14 -10 13 12 15 21 34 21 43 0 9 -9 2 -21 -18 -26
-43 -32 -36 -14 14 19 53 18 66 -6 95 l-20 25 14 -30 c19 -38 12 -74 -20 -111
-13 -16 -22 -23 -18 -16 3 6 1 12 -4 12 -6 0 -11 -5 -11 -11 0 -5 -5 -7 -11
-3 -8 4 -8 1 0 -14 9 -18 8 -23 -8 -32 -11 -5 -31 -10 -45 -10 -14 0 -41 -13
-59 -30 -19 -16 -40 -30 -47 -30 -18 0 -7 -21 21 -39 18 -11 21 -11 12 -1 -21
22 -15 34 24 55 32 17 60 21 72 10 8 -8 -44 -67 -68 -77 -49 -21 -81 -21 -81
-1 0 14 -2 15 -9 4 -6 -9 -5 -22 2 -35 7 -12 13 -23 14 -25 1 -2 21 -7 43 -11
l41 -8 -21 23 -21 23 23 5 c13 4 32 15 44 25 23 22 59 16 44 -8 -5 -8 -9 -31
-8 -50 1 -33 1 -33 5 -5 9 74 43 112 68 78 12 -16 12 -14 8 10 -5 25 -3 28 18
25 37 -5 49 -17 49 -49 0 -30 13 -36 40 -19 11 7 17 5 22 -8 6 -15 7 -15 7 2
1 10 12 31 26 48 29 34 32 64 9 96 -14 21 -14 24 5 48 24 31 26 59 7 93 -10
18 -11 31 -2 53 8 21 7 33 -2 48 -6 11 -11 38 -10 60 1 28 -6 50 -21 70 -21
29 -23 46 -20 150 1 46 -6 87 -18 101 -18 22 -20 78 -3 89 12 7 13 13 4 28 -7
10 -10 30 -7 44 5 24 -13 52 -39 60 -10 4 -10 8 -1 19 6 8 14 31 18 52 7 34 5
39 -14 44 -20 5 -21 11 -17 79 4 76 16 104 45 104 14 -1 14 -2 -1 -11 -16 -9
-42 -78 -34 -87 2 -2 37 -12 78 -23 104 -27 154 -24 245 12 80 31 213 105 213
119 0 4 18 15 41 25 49 23 91 69 82 93 -12 32 -28 45 -100 78 -132 61 -254 78
-379 55 -27 -5 -80 -11 -119 -12 l-70 -4 3 38 c2 32 0 37 -18 37 -11 0 -20 6
-20 13 0 7 -16 28 -35 47 -19 19 -35 30 -35 25 0 -5 -9 1 -20 13 -12 12 -30
22 -40 22 -11 0 -20 5 -20 10 0 6 -7 10 -15 10 -8 0 -15 4 -15 10 0 5 -11 12
-25 16 -14 3 -25 12 -25 20 0 19 -33 34 -74 34 -19 0 -36 5 -38 11 -4 13 -96
41 -138 43 -14 0 -28 6 -32 11 -5 6 -8 6 -8 -1 0 -14 -55 -11 -95 5 -51 20
-54 20 -60 10z m323 -84 c3 -16 1 -18 -9 -7 -7 6 -21 12 -31 12 -10 0 -18 5
-18 11 0 20 55 5 58 -16z m97 -15 c4 -6 -10 -10 -35 -10 -25 0 -39 4 -35 10 3
6 19 10 35 10 16 0 32 -4 35 -10z m149 -109 c19 -21 14 -41 -10 -41 -8 0 -12
5 -9 10 3 6 0 10 -7 11 -10 0 -11 2 0 6 10 4 10 8 1 19 -18 22 6 17 25 -5z
m-974 -91 c0 -13 -5 -18 -15 -14 -10 4 -15 0 -15 -12 0 -14 -2 -16 -12 -5 -11
10 -8 16 12 31 31 24 30 24 30 0z m1047 -229 c33 -17 44 -29 52 -59 11 -40 10
-167 -1 -149 -3 5 -6 -6 -5 -26 1 -27 7 -38 24 -46 13 -6 23 -15 23 -21 0 -6
-15 0 -33 14 l-33 25 -24 -46 c-16 -29 -41 -57 -69 -75 -39 -24 -54 -28 -110
-26 l-66 1 60 7 60 7 -60 2 c-84 3 -108 18 -112 72 l-3 44 26 -28 c14 -16 28
-26 31 -23 2 2 -5 14 -16 25 -22 22 -25 38 -15 65 5 12 14 5 36 -29 16 -25 34
-45 39 -45 9 0 -21 49 -48 78 -17 18 -16 27 2 42 12 10 21 10 41 1 14 -6 33
-11 44 -11 21 0 50 25 50 43 0 7 -5 4 -11 -5 -12 -21 -59 -24 -77 -6 -7 7 -12
21 -12 32 0 17 1 18 13 4 18 -23 43 -28 64 -13 27 21 31 19 39 -20 4 -25 1
-46 -14 -75 -11 -22 -15 -40 -10 -40 6 0 8 -22 5 -55 -3 -30 -2 -55 2 -55 38
0 118 101 135 170 4 14 -6 1 -21 -28 -34 -64 -81 -124 -92 -118 -18 12 19 156
39 156 6 0 8 4 5 10 -7 12 38 24 65 17 18 -5 20 0 20 48 0 33 -5 55 -12 58
-10 4 -9 8 2 17 12 8 9 9 -12 4 -35 -8 -53 3 -37 22 9 11 8 14 -2 14 -12 0
-12 2 -1 9 21 13 -26 23 -148 32 l-105 7 115 -2 c94 -3 123 -7 157 -25z m-822
8 c-16 -7 -13 -8 12 -5 68 11 122 -75 110 -176 -5 -42 -53 -155 -62 -146 -2 2
7 26 21 54 13 28 26 66 28 85 2 19 1 24 -1 12 -2 -13 -9 -23 -14 -23 -6 0 -7
-4 -4 -10 3 -5 0 -20 -7 -32 -7 -13 -12 -25 -13 -28 -1 -12 -46 -82 -51 -78
-2 3 -6 27 -8 53 -2 26 -8 50 -12 54 -5 3 -18 23 -28 43 -10 21 -22 35 -27 33
-11 -7 -33 65 -30 99 2 25 1 27 -12 15 -8 -8 -12 -19 -10 -26 4 -9 -1 -9 -20
0 -14 6 -24 14 -22 17 2 3 -5 6 -15 7 -29 2 -13 -24 21 -36 16 -5 29 -15 29
-20 0 -17 -22 -13 -54 8 -33 22 -46 19 -46 -10 0 -14 -7 -19 -25 -19 -28 0
-32 9 -12 28 6 7 17 32 22 55 l11 42 104 6 c58 3 112 6 120 6 9 1 7 -2 -5 -8z
m733 -4 c6 -3 12 -20 12 -39 0 -22 7 -42 20 -54 20 -19 20 -19 -4 -30 -23 -10
-25 -9 -28 16 -2 17 -8 26 -17 24 -26 -6 -44 7 -32 21 8 10 7 14 -4 14 -8 0
-15 -5 -15 -10 0 -5 -9 -7 -20 -4 -11 3 -18 0 -17 -7 1 -6 -4 -10 -11 -8 -8 1
-11 -2 -7 -8 3 -5 2 -10 -4 -10 -5 0 -12 -13 -16 -30 -4 -16 -12 -33 -19 -37
-16 -10 -46 -66 -46 -88 0 -8 -4 -15 -10 -15 -5 0 -10 -16 -10 -36 0 -21 4
-33 10 -29 6 3 10 1 10 -4 0 -43 -71 46 -98 124 -6 17 -11 23 -11 15 -1 -19
42 -108 66 -137 10 -11 36 -33 58 -48 39 -26 39 -26 10 -21 -36 6 -76 51 -115
129 -35 71 -45 131 -31 183 17 58 34 75 81 79 24 3 46 8 49 11 3 4 -10 4 -29
0 -19 -3 -29 -2 -22 2 12 8 223 5 250 -3z m327 -29 c-16 -24 -45 -42 -45 -29
0 7 50 53 57 53 2 0 -4 -11 -12 -24z m-706 -23 c-3 -40 -15 -46 -93 -46 -80 0
-101 8 -90 36 5 14 21 17 95 17 49 0 89 -3 88 -7z m581 -2 c0 -8 -29 -37 -31
-30 -7 35 -6 39 12 39 10 0 19 -4 19 -9z m-1224 -36 c-4 -16 0 -34 9 -49 16
-23 15 -24 -4 -19 -17 4 -21 13 -21 42 0 34 6 51 18 51 2 0 1 -11 -2 -25z
m969 5 c7 -12 -42 -36 -53 -26 -4 4 2 14 12 22 23 17 33 18 41 4z m-364 -43
c18 -12 39 -33 45 -46 7 -12 17 -28 22 -33 8 -8 6 -15 -6 -25 -10 -8 -12 -12
-4 -11 8 2 19 -6 25 -16 7 -11 24 -40 40 -65 31 -51 37 -82 12 -61 -9 7 -18
11 -21 8 -2 -3 7 -13 21 -22 24 -16 37 -45 13 -30 -7 5 -8 3 -2 -7 10 -16 14
-34 17 -69 1 -14 7 -28 12 -32 6 -5 5 -8 -3 -8 -8 0 -9 -5 -3 -17 44 -88 45
-122 2 -197 -43 -74 -89 -113 -145 -121 -56 -9 -76 -2 -76 24 0 18 3 19 26 11
33 -13 77 -13 69 0 -3 6 -14 10 -25 10 -14 0 -39 31 -28 36 2 1 -6 12 -16 23
-19 21 -19 21 -1 15 11 -5 16 -4 12 2 -9 16 30 67 53 69 11 1 26 8 33 15 10
10 8 10 -10 1 -14 -7 -24 -8 -28 -1 -3 5 1 10 10 10 9 0 14 4 11 9 -4 5 7 12
24 16 17 4 28 10 25 15 -3 5 0 10 7 12 7 3 9 14 3 34 -4 16 -10 23 -12 16 -4
-10 -8 -10 -19 -1 -8 6 -14 8 -14 4 0 -4 7 -13 17 -20 9 -7 13 -17 9 -24 -5
-7 -12 -9 -19 -3 -23 17 -57 21 -57 6 0 -8 -5 -14 -11 -14 -5 0 -8 4 -5 9 3 5
-1 24 -9 42 -8 19 -14 27 -15 19 0 -9 -3 -11 -8 -5 -10 14 -32 17 -32 5 0 -5
7 -10 15 -10 8 0 15 -5 15 -11 0 -5 5 -7 10 -4 6 3 10 3 11 -2 0 -4 2 -18 3
-31 2 -13 -7 -33 -22 -47 -25 -25 -42 -32 -42 -17 0 4 -12 15 -26 25 -24 18
-24 18 6 -37 16 -31 26 -56 22 -56 -5 0 -20 21 -34 48 -18 33 -34 50 -57 58
-17 5 -29 13 -25 16 3 4 17 2 31 -3 26 -10 47 -4 38 12 -4 5 -26 9 -51 9 -35
0 -44 4 -44 17 0 12 -3 14 -11 6 -17 -17 -6 -57 17 -63 33 -8 75 -43 62 -51
-7 -4 -2 -12 13 -19 13 -7 35 -24 49 -38 l25 -25 -28 7 c-19 4 -26 3 -22 -4 3
-5 14 -10 24 -10 14 0 17 -9 16 -52 0 -48 -2 -53 -24 -56 -96 -14 -206 87
-215 198 -2 25 2 44 10 51 8 6 17 34 20 62 5 35 15 58 31 73 13 12 20 25 15
28 -6 3 -15 -1 -22 -9 -7 -8 -16 -15 -21 -15 -17 0 2 26 37 50 20 13 32 26 26
28 -6 2 -21 -7 -33 -19 -20 -20 -23 -20 -31 -5 -5 9 -6 26 -2 38 6 20 71 128
83 138 9 8 15 32 14 63 0 16 3 23 7 17 4 -7 12 0 19 18 13 31 39 48 81 55 14
2 28 5 31 6 3 0 21 -9 40 -22z m513 7 c8 -21 1 -31 -27 -36 -24 -5 -24 -4 -8
24 18 32 26 35 35 12z m59 -192 c9 -8 17 -20 17 -25 0 -6 -7 -2 -15 9 -10 12
-14 14 -13 4 2 -8 -3 -14 -9 -15 -7 0 -12 -4 -10 -10 1 -5 10 -9 20 -8 19 3
23 -12 6 -23 -8 -4 -7 -9 2 -15 12 -7 12 -9 0 -9 -8 0 -20 8 -28 18 -10 13
-10 9 2 -15 34 -71 10 -138 -40 -115 -21 10 -25 9 -25 -6 0 -9 5 -24 11 -32 9
-12 10 -12 5 4 -5 15 -2 17 18 12 19 -5 29 0 44 19 25 32 34 32 28 -1 -3 -16
0 -27 10 -31 8 -3 14 -18 14 -33 0 -16 7 -30 15 -34 21 -8 19 -28 -2 -24 -10
2 -17 11 -15 19 3 11 1 12 -9 2 -21 -21 -28 -15 -22 20 4 25 0 37 -14 47 -16
14 -17 14 -4 -2 16 -21 8 -50 -12 -42 -8 3 -19 15 -25 27 l-11 22 0 -22 c-1
-13 7 -24 19 -28 42 -13 56 -85 25 -131 -9 -14 -12 -23 -6 -20 6 4 28 -3 51
-14 32 -17 40 -26 40 -49 0 -39 -32 -64 -83 -66 -35 0 -45 4 -64 29 -26 33
-29 50 -10 43 6 -2 20 3 30 12 18 15 20 14 38 -8 22 -26 24 -23 8 13 -13 28
-49 42 -49 19 0 -8 -4 -12 -9 -9 -5 4 -11 0 -14 -6 -3 -10 -10 -10 -28 1 -22
13 -23 13 -10 -2 9 -12 10 -17 2 -17 -21 0 -61 32 -62 49 0 11 -2 12 -6 3 -7
-17 22 -59 47 -67 11 -4 18 -11 15 -16 -3 -5 2 -6 11 -2 11 4 15 2 11 -4 -9
-15 40 -54 73 -58 16 -2 34 -6 40 -10 5 -3 10 1 10 9 0 13 4 14 26 4 22 -10
25 -17 20 -42 -7 -34 -22 -53 -33 -43 -4 4 -1 13 5 19 7 7 12 21 12 32 -1 21
-1 21 -12 1 -6 -11 -15 -24 -20 -30 -5 -5 -14 -18 -22 -29 -7 -11 -29 -20 -55
-23 -41 -5 -42 -4 -32 15 6 12 11 30 11 42 0 12 4 18 10 15 6 -4 7 -12 4 -18
-5 -8 -4 -9 4 -2 6 6 9 21 5 33 -5 21 -7 22 -23 7 -16 -15 -18 -14 -23 14 -5
24 -14 32 -46 42 -46 14 -49 19 -49 112 0 61 2 69 21 77 16 6 28 2 45 -13 26
-24 29 -16 5 20 l-17 26 28 -7 c19 -5 26 -3 21 5 -4 6 -18 9 -31 6 -34 -6 -45
13 -50 85 -4 59 -3 62 12 43 15 -19 15 -18 10 20 -6 40 -6 40 13 18 l18 -22
10 22 c6 12 8 33 6 46 -2 13 3 31 12 40 42 44 66 82 59 92 -8 14 12 4 39 -19z
m-857 -84 c-3 -7 -7 -40 -10 -73 -5 -44 -3 -56 5 -45 8 12 9 9 4 -10 -4 -14
-15 -32 -26 -42 -21 -18 -25 -38 -8 -38 9 0 9 -4 0 -14 -42 -50 88 -286 159
-286 11 0 20 -7 20 -15 0 -20 16 -19 24 1 6 15 10 14 33 -7 20 -18 25 -20 20
-6 -5 14 0 17 36 19 23 1 51 2 63 3 34 2 84 44 122 104 19 31 42 61 50 67 8 6
12 16 8 23 -4 7 -2 10 4 9 14 -3 23 29 10 37 -4 2 -6 16 -5 30 2 14 -1 25 -6
25 -5 0 -9 5 -9 11 0 5 6 7 13 3 6 -4 2 4 -10 18 -13 13 -23 30 -23 37 0 7 11
-1 24 -16 13 -15 28 -25 32 -20 4 4 -2 17 -13 30 -26 29 -79 122 -64 113 7 -5
9 3 5 24 -8 38 1 39 21 0 14 -28 13 -34 -7 -31 -11 1 -10 -7 2 -22 52 -64 59
-71 68 -62 5 6 6 21 1 35 -7 23 -7 24 -8 3 -1 -15 -6 -21 -15 -17 -18 7 -38
52 -26 59 5 3 7 12 3 21 -4 12 -1 13 19 5 13 -5 51 -8 85 -7 l62 1 -6 -115
c-5 -93 -10 -124 -29 -162 -25 -50 -72 -91 -116 -102 -32 -7 -35 0 -11 26 19
21 15 31 -7 15 -9 -7 -28 -42 -44 -80 -51 -121 -136 -173 -255 -155 -91 14
-144 60 -197 173 -19 41 -39 75 -42 76 -4 0 -18 2 -32 5 -18 3 -21 2 -10 -5 8
-5 17 -8 21 -6 6 5 29 -39 29 -55 0 -18 -18 -10 -68 29 -69 55 -94 111 -97
215 -1 44 -6 95 -10 113 -7 32 -7 32 27 27 44 -8 148 12 167 31 19 18 22 19
17 3z m738 -24 c4 -10 2 -13 -6 -8 -7 5 -9 2 -5 -8 4 -12 1 -14 -14 -11 -20 6
-20 30 0 26 6 -2 11 2 11 7 0 15 7 12 14 -6z m154 -45 c-10 -8 -10 -12 5 -23
9 -7 17 -16 17 -20 0 -4 -13 3 -30 16 -28 20 -44 58 -18 42 8 -5 9 -2 5 10
-12 31 5 40 20 11 13 -23 13 -29 1 -36z m-558 -162 c-13 -7 -34 -28 -47 -47
-43 -67 -53 -75 -27 -20 29 60 48 79 79 80 17 0 17 -2 -5 -13z m579 -43 c12
-15 21 -34 20 -43 0 -12 -3 -11 -10 4 -7 16 -9 14 -6 -12 3 -32 3 -33 -16 -15
-15 12 -21 14 -24 4 -3 -6 -9 -10 -13 -7 -5 3 -2 17 5 32 10 18 11 32 4 45
-16 29 16 23 40 -8z m-265 -136 c-8 -26 18 -62 54 -77 68 -29 69 -141 1 -177
-38 -19 -42 -18 -23 11 20 30 14 40 -41 64 -25 11 -45 22 -45 24 0 9 40 0 56
-14 16 -12 17 -12 9 1 -20 35 -28 42 -36 28 -6 -10 -12 -8 -24 7 -12 16 -14
17 -9 2 5 -14 2 -16 -12 -10 -17 6 -18 5 -4 -12 14 -17 14 -18 -7 -7 -12 7
-24 17 -26 24 -4 10 -6 10 -6 1 -1 -7 13 -25 30 -41 19 -17 29 -34 24 -41 -5
-9 -10 -9 -20 -1 -8 7 -18 9 -24 6 -16 -10 -48 42 -56 91 -6 39 -4 49 11 60
24 18 34 16 35 -4 1 -17 2 -17 6 0 2 9 9 17 14 17 5 0 9 4 9 10 0 5 10 21 22
35 20 24 23 24 30 8 4 -13 7 -8 8 17 1 33 1 34 15 16 8 -11 12 -28 9 -38z
m300 -80 c8 -18 12 -37 9 -44 -2 -7 3 -29 12 -48 18 -37 14 -86 -6 -86 -8 0
-9 13 -5 39 3 23 2 42 -4 46 -6 4 -7 -1 -3 -11 4 -12 3 -15 -6 -10 -8 5 -12 3
-10 -5 3 -26 -1 -39 -12 -39 -8 0 -8 5 1 15 10 12 10 15 -4 15 -20 0 -20 14 0
45 16 24 15 60 -1 98 -4 10 -3 17 4 17 7 0 18 -14 25 -32z m-524 -115 c0 -21
1 -59 3 -84 3 -33 0 -46 -9 -46 -7 0 -10 5 -7 11 3 6 -5 1 -18 -10 -13 -12
-29 -20 -34 -18 -6 3 -12 -9 -13 -26 -1 -16 1 -30 5 -30 5 0 9 -16 11 -36 1
-19 7 -44 12 -54 15 -28 12 -70 -4 -70 -15 0 -26 21 -26 51 0 11 -10 23 -24
29 -29 10 -45 54 -48 128 -1 28 -6 52 -10 52 -12 0 -10 48 2 55 6 3 10 1 10
-6 0 -8 3 -9 13 0 8 6 17 8 20 4 4 -3 7 2 7 11 0 11 5 16 14 13 7 -3 19 0 25
6 8 8 11 7 11 -3 0 -8 11 2 25 23 14 20 28 37 31 37 3 0 5 -17 4 -37z m542
-80 c9 -8 14 -22 11 -31 -4 -10 -2 -13 5 -8 19 12 14 -35 -5 -51 -11 -9 -12
-12 -3 -7 8 4 11 3 7 -1 -4 -5 -14 -10 -21 -11 -7 -1 -23 -5 -34 -8 -12 -4
-23 -2 -28 5 -4 7 -3 9 3 6 6 -4 14 0 17 8 3 8 11 14 17 13 23 -6 28 39 8 77
-20 36 -13 38 23 8z m-142 -155 c0 -24 -18 -59 -39 -75 -20 -15 -75 -17 -66
-3 4 6 11 8 16 5 5 -4 4 6 -1 21 -13 32 5 50 29 31 12 -9 13 -9 8 0 -5 7 0 24
9 38 13 20 19 23 30 14 8 -6 14 -20 14 -31z m112 8 c5 -7 8 -6 8 4 1 24 40
-29 40 -54 0 -29 -25 -63 -60 -81 -35 -18 -48 -19 -32 -3 15 15 16 31 1 22 -7
-4 -10 -1 -7 7 3 8 10 13 16 12 5 -1 13 4 16 13 3 8 2 12 -4 9 -19 -11 -50
-14 -55 -4 -4 5 -11 7 -16 3 -6 -4 -9 8 -7 32 2 30 7 38 25 39 12 1 21 -1 21
-4 -1 -3 3 -17 9 -30 7 -18 12 -21 18 -12 4 8 2 17 -6 21 -7 5 -13 18 -14 29
-1 17 2 20 19 15 12 -4 24 -12 28 -18z"/>
<path d="M2001 1313 c-1 -6 -8 -19 -17 -27 -10 -11 -12 -21 -6 -32 7 -13 11
-11 21 15 7 16 11 36 8 43 -4 9 -6 9 -6 1z"/>
<path d="M1300 1570 c7 -4 10 -12 6 -18 -3 -6 0 -13 6 -15 7 -3 4 -6 -7 -7
-19 -1 -19 -1 -2 -11 14 -8 15 -14 7 -24 -9 -11 -7 -14 9 -12 22 1 27 12 11
22 -6 4 -8 11 -4 16 3 5 10 7 15 4 17 -11 9 7 -8 21 -17 12 -16 13 7 22 23 9
22 10 -14 10 -23 0 -34 -3 -26 -8z"/>
<path d="M1788 1477 c24 -7 40 -16 36 -20 -11 -11 -16 -49 -5 -43 14 9 19 56
8 63 -6 4 -27 8 -47 9 -34 2 -34 2 8 -9z"/>
<path d="M1760 1420 c0 -5 5 -10 11 -10 5 0 8 -4 4 -9 -3 -5 0 -13 6 -17 7 -4
9 -3 5 4 -3 5 -1 12 6 14 6 2 8 10 4 16 -9 15 -36 16 -36 2z"/>
<path d="M1547 1444 c-10 -13 -13 -24 -7 -24 5 0 10 6 10 13 1 7 5 6 13 -5 12
-15 14 -15 24 0 18 30 18 35 -2 38 -12 2 -27 -7 -38 -22z"/>
<path d="M1415 1270 c-3 -5 -3 -10 2 -10 4 0 2 -4 -6 -9 -16 -10 -8 -41 11
-41 10 0 10 2 1 8 -8 5 -8 11 1 24 7 10 17 14 22 10 4 -4 2 1 -5 11 -16 20
-18 20 -26 7z"/>
<path d="M1653 1070 c-1 -12 3 -18 9 -14 6 4 14 0 19 -7 7 -12 9 -11 9 2 0 15
-18 39 -30 39 -3 0 -6 -9 -7 -20z"/>
<path d="M1503 798 c1 -7 -11 -15 -28 -18 -30 -6 -30 -6 -5 -13 42 -11 54 -8
67 18 10 23 9 25 -13 25 -13 0 -23 -5 -21 -12z"/>
<path d="M2066 1072 c-8 -14 0 -43 15 -53 19 -12 32 -11 24 1 -3 6 2 10 12 11
10 0 3 5 -14 10 -18 5 -33 14 -33 20 0 6 7 9 15 5 8 -3 15 -1 15 4 0 12 -27
13 -34 2z"/>
<path d="M2106 891 c-4 -6 -4 -11 1 -11 4 0 1 -5 -7 -10 -12 -7 -12 -12 -2
-22 9 -9 12 -9 12 1 0 7 5 9 10 6 12 -8 13 15 1 34 -6 9 -11 10 -15 2z"/>
<path d="M1295 1162 c-36 -48 -55 -82 -44 -82 5 0 7 -5 3 -12 -4 -7 -3 -8 5
-4 6 4 9 12 5 17 -7 12 15 41 26 34 5 -3 12 0 16 6 5 8 2 10 -7 5 -8 -4 -5 0
5 8 13 10 15 16 7 16 -11 0 -11 3 -1 15 7 9 11 17 9 19 -2 2 -13 -8 -24 -22z"/>
<path d="M1286 1085 c-7 -20 4 -26 26 -14 20 11 18 21 -7 25 -7 1 -16 -4 -19
-11z"/>
<path d="M1227 1064 c-11 -20 -12 -109 0 -109 6 0 15 -3 19 -7 14 -14 22 -8
17 11 -3 11 -11 17 -17 15 -13 -5 -16 43 -3 62 3 6 2 16 -2 23 -5 7 -11 9 -14
5z"/>
<path d="M1920 1038 c0 -9 -7 -21 -15 -28 -9 -7 -13 -15 -11 -18 3 -2 -1 -20
-9 -38 -8 -19 -11 -34 -6 -34 13 0 31 24 31 42 0 10 5 18 11 18 6 0 9 -9 6
-20 -3 -12 -1 -18 5 -14 5 4 7 26 4 51 -5 45 -16 72 -16 41z"/>
<path d="M1973 706 c0 -8 6 -12 15 -8 10 3 13 1 8 -6 -3 -6 -1 -14 5 -18 8 -4
9 -3 5 4 -13 21 12 13 35 -10 19 -21 21 -21 17 -4 -1 10 -10 22 -18 26 -8 4
-25 12 -37 18 -29 15 -30 15 -30 -2z"/>
<path d="M1715 560 c3 -5 2 -10 -3 -10 -14 0 -23 -41 -13 -58 7 -12 10 -11 24
3 23 23 20 75 -5 75 -5 0 -6 -4 -3 -10z"/>
<path d="M2293 365 c-3 -9 -3 -19 1 -22 3 -3 1 -12 -6 -20 -7 -9 -8 -17 -1
-24 7 -7 15 -4 24 7 8 11 9 15 2 11 -9 -6 -11 2 -9 28 3 37 -1 44 -11 20z"/>
<path d="M1663 2050 c-3 -11 -12 -20 -19 -20 -8 0 -14 -7 -14 -15 0 -34 43 0
45 36 2 25 -5 24 -12 -1z"/>
<path d="M1418 1999 c-10 -5 -18 -17 -18 -26 0 -16 1 -16 13 0 6 9 23 21 37
26 21 8 22 10 5 10 -11 0 -28 -4 -37 -10z"/>
<path d="M1209 1983 c-11 -15 -11 -16 1 -5 23 20 35 14 15 -8 -14 -15 -21 -17
-32 -8 -11 9 -12 6 -3 -17 14 -36 7 -55 -20 -55 -11 0 -20 -5 -20 -12 0 -6 3
-8 7 -5 3 4 12 2 19 -4 9 -8 17 -7 26 1 7 6 22 18 33 26 11 9 14 13 8 9 -18
-9 -16 10 3 26 13 10 17 10 25 -2 16 -26 10 -49 -13 -50 -13 0 -17 -3 -10 -6
6 -2 12 -9 12 -14 0 -4 -7 -6 -15 -3 -10 4 -26 -5 -42 -22 -32 -34 -78 -61
-70 -41 3 8 -3 14 -14 14 -11 1 -17 -2 -14 -7 3 -5 1 -11 -5 -15 -6 -4 -8 -10
-5 -15 3 -5 1 -17 -4 -27 -5 -10 -12 -27 -16 -38 -6 -18 -8 -18 -18 -4 -7 8
-21 19 -31 23 -19 6 -19 6 -3 -12 22 -24 22 -42 0 -42 -29 0 -43 14 -38 38 3
19 1 20 -15 10 -11 -7 -16 -17 -11 -23 18 -22 20 -55 3 -55 -8 0 -13 -2 -10
-5 2 -3 35 2 73 10 64 13 90 29 79 47 -3 4 2 21 11 38 13 24 21 30 38 26 12
-3 16 -3 10 0 -21 9 -15 27 7 21 11 -3 18 -1 14 4 -9 15 76 10 92 -6 9 -8 12
-15 7 -15 -26 -2 69 -39 100 -40 20 0 37 -5 37 -11 0 -7 -7 -8 -17 -4 -12 4
-7 -5 11 -24 25 -26 46 -33 46 -15 0 3 -4 2 -10 -1 -5 -3 -10 1 -10 9 0 9 -5
16 -10 16 -7 0 -7 6 0 20 6 11 20 20 31 20 11 0 18 4 14 10 -3 5 -33 7 -68 4
-57 -5 -65 -3 -92 21 -16 15 -24 24 -17 20 6 -3 12 -1 12 4 0 6 -4 11 -10 11
-5 0 -14 10 -21 21 -9 18 -7 27 10 50 12 15 21 32 21 38 0 14 28 21 34 8 3 -7
5 -3 3 7 -3 25 -21 31 -40 12 -13 -14 -16 -14 -27 -1 -17 21 -29 19 -51 -7
-14 -18 -18 -19 -19 -7 0 27 35 51 66 44 28 -6 28 -5 -6 14 -43 25 -45 25 -61
4z m59 -172 c3 -10 -1 -12 -19 -8 -13 4 -28 7 -32 7 -5 0 -6 4 -3 9 9 13 49 8
54 -8z"/>
<path d="M1840 1950 c-11 -7 -11 -10 -2 -10 7 0 10 -5 6 -11 -3 -6 -18 -8 -33
-5 -22 5 -23 5 -8 -5 10 -6 25 -8 33 -5 8 3 14 2 14 -2 0 -5 -16 -14 -37 -21
-29 -11 -33 -15 -20 -22 18 -10 15 -47 -5 -61 -8 -6 -5 -7 10 -3 12 3 22 2 22
-3 0 -6 25 -8 62 -5 41 4 59 3 55 -4 -4 -6 5 -13 21 -16 15 -3 36 -15 47 -26
11 -12 28 -30 39 -40 30 -32 11 -41 -92 -43 -96 -1 -96 -1 38 -8 74 -4 148
-13 163 -19 16 -6 36 -11 45 -10 14 0 14 2 2 6 -39 15 -61 69 -22 56 13 -4 12
-2 -3 11 -19 15 -19 16 -1 9 13 -4 17 -3 12 5 -10 17 -39 15 -33 -2 7 -17 -16
-39 -44 -43 -13 -2 -23 7 -33 30 -13 32 -76 104 -76 88 0 -8 -53 12 -99 38
-22 11 -24 28 -4 34 10 2 27 8 37 13 13 5 17 4 13 -3 -4 -6 1 -17 11 -24 16
-13 16 -13 2 5 -14 18 -13 19 12 13 22 -6 26 -4 22 7 -3 8 -11 13 -19 10 -7
-3 -15 4 -18 15 -3 12 -11 21 -19 20 -10 0 -10 -2 0 -6 22 -9 12 -20 -15 -16
-24 3 -25 2 -8 -6 14 -7 15 -10 5 -10 -8 -1 -25 -4 -37 -7 -17 -5 -23 -2 -23
10 0 9 7 19 15 23 13 5 13 8 -5 20 -11 8 -18 19 -15 24 8 11 4 11 -15 -1z m7
-74 c-3 -8 1 -17 9 -20 19 -7 18 -36 -1 -36 -8 0 -15 -5 -15 -11 0 -8 -5 -7
-16 2 -14 12 -14 14 2 26 10 7 13 13 6 13 -6 0 -9 7 -6 15 5 11 1 14 -12 9
-16 -5 -16 -4 -4 5 22 15 43 14 37 -3z"/>
<path d="M1686 1927 c-17 -12 -13 -15 35 -24 54 -11 100 -3 64 10 -9 4 -13 11
-10 17 4 7 -3 7 -20 0 -34 -13 -70 -13 -40 0 14 6 16 9 4 9 -8 1 -23 -5 -33
-12z"/>
<path d="M1700 1870 c-19 -4 -29 -8 -21 -9 11 -1 9 -7 -7 -24 -12 -13 -22 -27
-22 -32 0 -4 11 4 25 19 13 14 30 26 38 26 8 0 20 7 27 15 13 16 13 16 -40 5z"/>
<path d="M1312 1848 c2 -14 13 -24 31 -29 24 -6 27 -5 27 17 0 24 -14 32 -25
14 -10 -16 -25 -12 -19 5 4 8 1 15 -6 15 -6 0 -10 -10 -8 -22z"/>
<path d="M2067 1849 c-4 -15 0 -27 10 -34 10 -8 13 -17 8 -26 -4 -8 6 1 24 19
35 38 38 47 15 56 -12 5 -15 2 -10 -11 4 -9 1 -20 -6 -25 -18 -11 -30 -10 -23
2 3 5 2 17 -3 26 -8 14 -10 13 -15 -7z"/>
<path d="M1411 1827 c-19 -19 -13 -22 33 -19 44 4 91 -12 82 -27 -3 -5 -18 -6
-33 -4 -27 4 -27 4 -9 -11 23 -19 36 -20 36 -5 0 5 5 7 12 3 6 -4 8 -3 4 4 -3
5 -1 12 6 14 17 6 -55 48 -90 53 -16 2 -35 -2 -41 -8z"/>
<path d="M1703 1793 c9 -2 17 -9 17 -14 0 -13 37 -11 46 3 5 8 0 9 -14 6 -12
-4 -22 -2 -22 3 0 5 -10 8 -22 8 -17 -1 -19 -2 -5 -6z"/>
<path d="M1655 1745 c-14 -13 -26 -32 -26 -42 -4 -60 -3 -81 3 -75 5 5 10 23
12 41 2 18 9 38 16 44 10 9 11 9 5 -2 -5 -10 -4 -12 4 -7 6 4 8 12 5 18 -4 6
4 19 17 29 20 16 21 19 6 19 -10 0 -29 -11 -42 -25z"/>
<path d="M1845 1759 c-16 -5 -40 -7 -53 -4 -21 5 -87 -18 -97 -35 -8 -13 30
-7 47 8 13 10 29 13 61 8 36 -6 46 -3 62 14 10 11 16 20 14 19 -2 0 -17 -5
-34 -10z"/>
<path d="M1537 1753 c-11 -3 -16 -10 -13 -20 3 -8 6 -24 7 -36 0 -12 3 -16 6
-9 2 6 9 10 14 6 5 -3 9 11 9 30 0 20 -1 35 -2 35 -2 -1 -11 -3 -21 -6z"/>
<path d="M1608 1738 c-23 -35 -29 -61 -17 -78 8 -12 9 -10 4 8 -4 14 -2 22 6
22 7 0 10 3 6 6 -3 4 0 19 9 35 17 34 12 38 -8 7z"/>
<path d="M1880 1735 c-10 -12 -10 -15 1 -15 8 -1 3 -7 -11 -15 -29 -16 -19
-20 11 -4 11 5 17 14 14 19 -3 5 3 13 12 19 16 9 16 10 2 11 -9 0 -22 -7 -29
-15z"/>
<path d="M470 1730 c-8 -5 -24 -10 -36 -10 -11 0 -28 -6 -38 -13 -16 -12 -15
-13 6 -12 23 2 88 31 88 40 0 7 -3 6 -20 -5z"/>
<path d="M1279 1733 c-1 -4 -1 -11 0 -15 0 -4 -5 -5 -13 -2 -8 3 -17 1 -20 -4
-3 -6 5 -13 18 -16 13 -3 32 -9 43 -12 17 -5 17 -5 -1 6 -11 7 -14 15 -8 19 6
4 5 11 -4 19 -8 7 -15 9 -15 5z"/>
<path d="M2601 1721 c-11 -7 -8 -9 10 -10 42 -1 59 -4 59 -12 0 -4 24 -13 52
-20 39 -9 48 -14 34 -19 -17 -6 -18 -7 -3 -13 18 -7 32 7 22 22 -3 5 -19 12
-35 16 -17 4 -30 10 -30 15 0 9 -55 30 -79 30 -9 0 -22 -4 -30 -9z"/>
<path d="M1742 1683 c-30 -44 -36 -57 -24 -49 5 3 12 2 14 -2 1 -5 17 -3 33 5
l30 13 -34 -6 c-26 -5 -32 -3 -28 7 2 8 9 13 15 12 6 -2 9 4 6 12 -5 11 -2 13
10 9 11 -4 16 -1 16 10 0 24 -16 19 -38 -11z"/>
<path d="M2235 1680 c5 -15 2 -20 -12 -20 -15 0 -16 -2 -3 -10 9 -5 16 -6 18
0 2 5 9 8 15 6 7 -1 9 -1 5 1 -5 3 -8 13 -8 24 0 10 -5 19 -11 19 -6 0 -8 -9
-4 -20z"/>
<path d="M340 1667 c0 -4 -4 -6 -9 -3 -5 3 -11 0 -14 -7 -3 -8 5 -19 16 -27
20 -12 21 -12 8 3 -12 15 -10 17 15 17 20 0 25 -3 15 -9 -7 -5 -9 -11 -4 -14
5 -3 15 -2 23 3 11 7 11 12 2 23 -7 7 -9 17 -5 20 3 4 -6 6 -20 5 -15 -1 -27
-6 -27 -11z"/>
<path d="M869 1639 c-8 -15 -8 -19 0 -15 6 4 11 3 11 -2 0 -11 48 -3 56 9 3 5
-9 6 -26 3 -25 -6 -29 -4 -24 10 9 23 -3 20 -17 -5z"/>
<path d="M540 1480 c28 -22 55 -26 65 -10 4 7 -3 9 -22 5 -19 -5 -24 -4 -15 3
11 7 8 11 -10 15 -39 11 -44 7 -18 -13z"/>
<path d="M2540 1484 l-25 -14 28 0 c15 0 27 5 27 11 0 5 4 8 9 4 5 -3 12 -2
15 3 8 13 -27 10 -54 -4z"/>
<path d="M2478 1463 c-17 -4 -17 -6 -1 -21 12 -12 18 -13 21 -4 2 6 11 12 20
12 15 0 15 2 2 10 -8 5 -17 9 -20 9 -3 -1 -13 -3 -22 -6z"/>
<path d="M595 1449 c-4 -5 5 -9 18 -9 14 0 30 -7 37 -15 6 -8 15 -14 18 -13 4
0 9 -1 12 -2 15 -6 50 -6 50 0 0 17 -27 29 -38 18 -9 -9 -12 -9 -12 0 0 7 -9
12 -20 12 -11 0 -20 4 -20 8 0 11 -39 12 -45 1z"/>
<path d="M826 1452 c-2 -4 0 -14 5 -22 8 -12 12 -12 16 -2 2 6 9 10 13 7 5 -3
12 0 16 6 4 7 3 9 -4 5 -6 -3 -13 -2 -17 4 -7 12 -22 13 -29 2z"/>
<path d="M981 1405 c-1 -31 43 -117 74 -145 26 -23 26 -22 -4 17 -19 23 -42
66 -52 95 -9 29 -18 44 -18 33z"/>
<path d="M930 1335 c-13 -14 -21 -28 -18 -31 8 -8 -19 -72 -43 -103 -24 -30
-25 -149 -2 -129 10 8 13 4 13 -17 0 -22 -3 -25 -13 -16 -21 17 -45 -33 -29
-60 10 -16 9 -22 -8 -39 -22 -22 -27 -69 -9 -87 8 -8 8 -13 0 -17 -6 -4 -11
-13 -11 -19 0 -7 4 -6 10 3 7 12 11 13 22 2 11 -11 10 -15 -5 -23 -9 -6 -15
-14 -12 -18 2 -5 -2 -14 -10 -21 -8 -7 -15 -18 -15 -24 0 -7 4 -6 9 2 6 11 10
10 16 -5 6 -15 9 -12 17 17 21 81 26 116 17 126 -9 11 -5 45 6 64 9 14 21 12
38 -5 13 -13 16 -13 21 1 3 8 2 12 -4 9 -6 -3 -10 -1 -10 4 0 6 -11 11 -25 11
-27 0 -30 6 -16 29 5 7 14 10 20 7 6 -4 9 -12 5 -17 -3 -5 0 -8 8 -7 13 3 37
35 38 51 0 4 -6 7 -14 7 -9 0 -13 -8 -9 -22 4 -22 4 -23 -11 -4 -22 28 -21
101 2 124 11 11 19 34 20 52 0 18 7 37 14 41 9 6 9 9 1 9 -6 0 -18 -13 -27
-30 -8 -16 -11 -30 -6 -30 5 0 -1 -15 -13 -34 -12 -18 -25 -32 -29 -29 -11 6
-10 63 1 63 4 0 6 -12 4 -27 l-4 -28 14 25 c10 17 12 31 6 47 -6 17 -5 25 5
29 12 5 27 46 30 81 1 6 10 21 20 32 28 30 14 36 -14 6z m-86 -459 c7 -36 6
-38 -8 -27 -16 14 -22 52 -9 64 9 9 9 8 17 -37z"/>
<path d="M981 1134 c-34 -43 -22 -63 14 -24 12 13 14 20 5 20 -10 0 -10 3 0
15 7 8 10 15 7 15 -3 0 -15 -12 -26 -26z"/>
<path d="M938 1103 c-16 -38 -18 -39 -28 -23 -8 12 -10 12 -10 -4 0 -13 5 -17
20 -13 12 3 20 0 20 -7 0 -12 79 -50 87 -43 1 2 -3 18 -9 35 -12 32 -33 39
-33 11 0 -8 -7 -14 -15 -14 -11 0 -15 11 -15 43 0 23 -1 42 -3 42 -1 0 -8 -12
-14 -27z"/>
<path d="M1040 985 c14 -17 7 -45 -13 -45 -7 0 -30 -9 -51 -19 -34 -18 -37
-18 -32 -3 3 10 -1 8 -10 -5 -21 -29 -34 -29 -34 -1 0 26 -17 13 -22 -17 -2
-15 2 -19 17 -16 20 3 20 3 0 -20 -11 -12 -14 -19 -7 -15 9 5 13 3 11 -5 -4
-31 2 -48 27 -72 18 -18 24 -32 20 -44 -6 -14 -5 -16 5 -5 7 6 19 12 27 12 13
0 13 -11 1 -45 -2 -5 1 -11 6 -12 6 -2 11 2 11 7 1 6 2 14 3 20 0 5 18 18 38
27 20 10 38 23 40 29 6 17 -26 44 -50 43 l-22 0 23 -9 c12 -6 22 -18 22 -30 0
-17 -6 -20 -42 -19 -37 1 -39 2 -18 9 19 6 21 8 6 9 -11 1 -16 4 -13 7 3 4 2
15 -4 26 -8 16 -7 19 7 16 11 -2 18 5 21 22 2 14 10 30 18 36 8 6 15 15 15 20
0 4 -15 -7 -33 -24 -18 -18 -36 -30 -40 -26 -3 3 -4 -12 -2 -35 5 -47 -5 -52
-34 -15 -24 30 -26 50 -10 91 10 26 12 26 19 8 7 -19 7 -19 14 3 7 22 17 28
29 15 4 -3 2 -12 -4 -19 -7 -8 -7 -14 1 -19 6 -4 9 -2 8 4 -2 5 6 17 17 25 19
15 19 16 1 9 -14 -5 -17 -3 -12 6 5 7 17 11 27 8 12 -3 17 -1 12 6 -4 6 0 8
10 4 9 -3 16 -3 15 1 -1 4 3 17 10 29 11 19 9 24 -7 33 -28 14 -36 13 -21 -5z"/>
<path d="M700 825 c-7 -8 -18 -14 -24 -13 -6 2 -12 -1 -13 -7 0 -5 3 -9 8 -8
4 2 6 -4 2 -13 -8 -21 -27 -12 -31 14 -4 28 -17 28 -35 1 -8 -11 -21 -21 -29
-22 -7 -2 -29 -14 -48 -27 -19 -14 -35 -24 -35 -22 0 2 -8 0 -17 -3 -10 -4
-18 -11 -18 -16 0 -13 28 -11 32 3 3 9 6 9 12 -1 5 -8 1 -14 -12 -18 -21 -5
-39 -33 -22 -33 6 0 10 4 10 9 0 5 9 11 21 14 16 4 19 10 14 27 -5 16 -3 21 6
18 8 -3 14 -13 14 -24 0 -14 6 -18 23 -16 14 2 22 -2 22 -12 0 -21 -21 -31
-32 -15 -7 10 -8 8 -5 -8 3 -15 0 -23 -9 -23 -7 0 -19 -10 -25 -22 -12 -22
-11 -22 8 -5 11 9 23 17 27 17 13 0 44 35 51 59 5 18 4 22 -5 16 -9 -5 -11 -4
-6 3 4 7 14 12 22 12 8 0 14 4 14 9 0 13 -25 8 -45 -9 -14 -12 -18 -12 -25 0
-5 8 -6 18 -3 23 3 5 9 4 13 -3 5 -9 9 -9 14 -1 4 6 2 11 -3 11 -6 0 -11 5
-11 11 0 7 10 9 27 4 45 -11 48 -11 46 3 -3 14 13 17 21 3 3 -5 -1 -14 -9 -21
-8 -7 -15 -19 -15 -26 0 -8 -4 -14 -10 -14 -5 0 -10 -7 -10 -16 0 -14 2 -15
16 -3 15 12 16 11 9 -10 -5 -17 -4 -21 5 -16 7 4 9 18 5 37 -5 21 -4 28 4 24
7 -4 11 0 11 11 0 11 6 27 13 38 17 23 28 8 31 -41 1 -37 -15 -61 -35 -49 -7
5 -9 1 -5 -12 4 -13 -1 -26 -14 -38 -11 -10 -20 -30 -19 -44 0 -23 1 -24 8 -6
5 11 7 22 5 25 -1 4 6 11 17 18 16 10 19 9 19 -3 0 -8 -4 -15 -9 -15 -9 0 -24
-30 -18 -36 2 -2 14 10 26 27 19 25 21 33 10 40 -9 6 -10 12 -4 17 6 4 15 16
21 27 6 11 21 21 33 21 25 1 27 -8 6 -26 -11 -9 -15 -9 -15 -1 0 7 -5 9 -11 5
-8 -5 -8 -9 1 -14 9 -6 8 -14 -5 -34 -10 -15 -15 -29 -12 -32 3 -3 15 11 26
33 11 21 29 49 40 63 18 22 21 23 21 6 0 -11 3 -17 6 -13 3 3 3 15 -1 26 -5
18 -10 19 -27 10 -11 -6 -22 -8 -25 -5 -4 3 -11 2 -17 -3 -8 -6 -11 1 -10 22
1 18 -2 42 -7 53 -4 13 -3 26 4 33 6 6 8 13 5 16 -3 3 -11 -1 -18 -10z"/>
<path d="M743 823 c19 -5 22 -18 7 -28 -5 -3 -10 -1 -10 5 0 6 -5 8 -11 4 -6
-3 -7 -9 -3 -13 5 -3 9 -12 10 -18 3 -41 5 -44 17 -36 6 4 15 8 20 8 4 0 8 5
9 10 0 6 8 15 17 22 9 7 11 13 6 13 -6 0 -16 -5 -23 -12 -15 -15 -42 -19 -42
-6 0 5 9 12 20 15 11 3 20 8 20 12 0 13 -24 31 -39 30 -12 -1 -12 -2 2 -6z"/>
<path d="M1155 748 c6 -30 3 -36 -20 -46 -14 -7 -32 -12 -39 -12 -8 0 -24 -9
-37 -19 -19 -16 -22 -22 -11 -32 10 -11 12 -10 12 2 0 10 21 22 58 34 63 21
84 35 65 42 -7 3 -13 15 -13 28 0 13 -5 27 -11 30 -7 5 -8 -4 -4 -27z"/>
<path d="M420 685 c-7 -9 -15 -13 -18 -10 -8 8 -32 -16 -32 -31 0 -8 5 -14 10
-14 6 0 10 6 10 14 0 7 10 16 23 19 20 5 20 5 5 -7 -10 -7 -18 -17 -18 -21 0
-4 6 -3 13 3 11 10 18 12 33 12 4 0 2 6 -5 13 -8 10 -7 17 1 25 8 8 8 12 1 12
-6 0 -16 -7 -23 -15z"/>
<path d="M1019 657 c-6 -21 -8 -42 -5 -45 3 -3 6 3 7 14 0 18 1 18 10 -1 8
-17 9 -16 4 6 -2 14 2 34 10 45 12 18 12 21 -1 21 -8 0 -19 -17 -25 -40z"/>
<path d="M495 643 c-4 -18 -14 -38 -21 -44 -18 -15 -18 -30 1 -23 8 3 14 9 13
12 -1 4 4 20 11 36 6 16 10 34 7 40 -2 6 -7 -4 -11 -21z"/>
<path d="M790 653 c0 -13 5 -23 10 -23 6 0 10 -7 10 -16 0 -8 5 -12 10 -9 6 4
8 10 5 15 -3 4 1 11 7 13 10 4 9 6 -1 6 -8 1 -20 9 -27 19 -12 16 -13 15 -14
-5z"/>
<path d="M751 639 c-11 -12 -20 -33 -19 -48 0 -30 -4 -51 -15 -68 -4 -6 -2
-15 4 -19 7 -4 9 -3 5 4 -3 5 -1 12 4 14 6 2 13 17 16 33 3 16 12 37 20 46 11
12 12 19 4 24 -8 5 -8 11 1 21 18 22 2 16 -20 -7z"/>
<path d="M469 645 c-1 -3 -2 -8 -3 -12 -3 -16 -18 -33 -28 -33 -7 0 -6 6 2 15
7 9 8 15 2 15 -14 0 -22 -24 -13 -39 8 -13 43 20 47 44 2 14 -4 22 -7 10z"/>
<path d="M1811 623 c-1 -12 4 -25 9 -28 13 -8 55 -93 64 -129 5 -20 -1 -32
-29 -59 -28 -27 -34 -40 -32 -66 2 -17 7 -34 12 -39 5 -4 5 -1 1 5 -4 7 -3 13
3 13 14 0 23 -18 11 -22 -5 -1 -7 -13 -4 -25 4 -13 11 -20 20 -16 8 3 14 0 14
-7 0 -6 4 -9 9 -5 6 3 4 17 -4 33 -36 70 -58 127 -35 92 8 -13 10 -12 10 3 0
9 8 26 18 36 29 32 37 45 40 64 3 19 -14 24 -21 5 -2 -7 -3 1 -1 17 3 24 2 27
-7 15 -9 -12 -10 -10 -6 8 3 13 3 21 0 18 -6 -6 -50 56 -63 89 -9 20 -9 20 -9
-2z"/>
<path d="M395 610 c-3 -5 -4 -14 0 -19 3 -6 -1 -13 -8 -18 -8 -4 -16 -18 -19
-31 -4 -12 -2 -20 3 -16 5 3 9 12 9 19 0 8 10 20 22 26 13 7 18 14 11 16 -7 3
-9 11 -6 19 6 16 -3 19 -12 4z"/>
<path d="M557 581 c-3 -12 -11 -21 -17 -21 -10 0 -10 3 0 15 9 10 9 15 1 15
-10 0 -15 -13 -12 -32 0 -5 -3 -8 -9 -8 -5 0 -10 4 -10 9 0 6 -12 6 -30 0 -16
-6 -30 -15 -30 -21 0 -5 6 -6 13 -1 19 12 49 14 42 3 -9 -15 52 9 66 26 8 10
9 18 2 25 -7 7 -12 4 -16 -10z"/>
<path d="M769 588 c-2 -3 -9 -47 -10 -63 -1 -5 0 -17 2 -25 2 -9 -2 -14 -10
-12 -14 3 -41 -15 -41 -29 0 -4 12 -2 27 6 15 8 30 12 34 10 10 -7 20 25 12
37 -3 6 -6 26 -5 45 1 27 -3 42 -9 31z"/>
<path d="M797 564 c-4 -4 0 -18 9 -31 13 -20 13 -27 2 -41 -9 -11 -10 -14 0
-8 9 5 12 -3 12 -30 0 -55 11 -34 14 26 1 30 -3 54 -10 58 -6 4 -13 13 -15 20
-3 7 -8 10 -12 6z"/>
<path d="M1216 551 c-10 -11 -29 -22 -42 -25 -14 -4 -23 -10 -20 -15 3 -4 -4
-15 -15 -24 -11 -10 -17 -23 -13 -29 5 -7 13 -3 26 13 36 48 42 53 46 41 2 -8
9 -9 20 -3 17 9 24 11 42 11 6 0 10 5 10 11 0 5 -6 7 -12 3 -17 -11 -48 -12
-48 -3 0 4 10 15 22 23 12 9 18 16 12 16 -6 0 -19 -9 -28 -19z"/>
<path d="M1330 556 c0 -10 -8 -25 -17 -32 -10 -7 -18 -18 -18 -26 0 -7 -11
-13 -26 -13 -14 0 -26 -5 -26 -12 0 -7 11 -10 28 -8 34 4 51 14 44 25 -3 4 3
14 12 21 12 10 14 10 9 2 -4 -7 -3 -13 3 -13 19 0 24 42 7 58 -15 15 -16 15
-16 -2z"/>
<path d="M652 523 c1 -10 -1 -24 -5 -30 -5 -7 -5 -13 0 -13 4 0 -3 -7 -16 -16
-17 -13 -20 -19 -10 -25 13 -8 41 20 38 38 -1 4 0 10 1 13 7 17 5 50 -2 50 -5
0 -8 -8 -6 -17z"/>
<path d="M1370 512 c0 -10 -9 -27 -20 -37 -11 -10 -18 -20 -15 -23 3 -3 -1
-12 -8 -20 -10 -13 -9 -14 11 -3 12 6 22 9 22 6 0 -16 36 16 37 34 2 18 1 19
-16 3 -10 -9 -16 -21 -13 -27 3 -5 -1 -4 -8 2 -11 10 -11 16 2 30 24 29 29 41
18 48 -5 3 -10 -2 -10 -13z"/>
<path d="M490 509 c0 -5 5 -7 10 -4 6 3 10 1 10 -4 0 -10 -13 -15 -32 -13 -3
1 -9 -5 -12 -13 -3 -9 1 -15 9 -15 8 0 15 5 15 10 0 6 7 10 15 10 8 0 15 9 15
20 0 11 -7 20 -15 20 -8 0 -15 -5 -15 -11z"/>
<path d="M2085 507 c-5 -7 -10 -23 -11 -37 -1 -14 -4 -34 -8 -45 -4 -11 1 -6
10 10 13 23 29 87 20 85 0 -1 -5 -6 -11 -13z"/>
<path d="M900 504 c0 -13 21 -42 34 -47 12 -5 11 0 -2 24 -15 26 -32 38 -32
23z"/>
<path d="M403 475 c-10 -14 -26 -27 -35 -29 -25 -3 -30 -12 -8 -13 10 -1 24 5
30 13 7 7 17 11 24 7 6 -3 8 -3 4 2 -4 4 -3 14 4 22 6 7 8 16 6 19 -3 3 -14
-7 -25 -21z"/>
<path d="M579 498 c-1 -2 -3 -16 -5 -33 -3 -28 -2 -29 12 -11 8 11 14 23 14
27 0 8 -19 23 -21 17z"/>
<path d="M1514 461 c-18 -31 -25 -35 -54 -32 -9 1 -31 -15 -50 -35 -29 -31
-31 -34 -8 -18 15 10 28 23 28 28 0 5 7 3 15 -4 13 -11 18 -10 29 6 8 10 18
15 23 11 8 -8 -34 -51 -71 -72 -9 -5 -18 -18 -20 -28 -1 -9 -8 -23 -14 -29 -7
-7 -12 -21 -13 -32 0 -21 0 -21 -9 -1 -6 13 -9 15 -9 5 0 -8 3 -21 7 -28 8
-12 22 6 36 51 3 10 10 15 16 12 5 -3 7 0 5 7 -3 8 13 31 35 53 39 38 88 121
77 131 -3 3 -13 -8 -23 -25z"/>
<path d="M1805 479 c-4 -5 -17 -14 -30 -19 -21 -8 -23 -14 -18 -52 5 -50 20
-85 39 -92 8 -3 6 6 -6 27 -24 38 -26 67 -5 67 8 0 15 5 15 10 0 6 6 10 14 10
14 0 26 20 26 43 0 6 -7 1 -16 -11 -8 -12 -22 -22 -30 -22 -8 0 -14 -5 -14
-11 0 -5 -5 -7 -11 -3 -6 4 2 17 23 35 18 15 30 28 26 29 -4 0 -10 -5 -13 -11z"/>
<path d="M1182 459 c-7 -10 -12 -35 -12 -54 0 -45 -19 -37 -21 8 -2 31 -2 31
-6 4 -5 -29 13 -61 28 -51 5 3 6 -1 3 -9 -3 -8 -1 -18 5 -21 6 -4 13 5 17 20
5 19 9 22 15 13 5 -9 7 -4 5 14 -3 30 -16 50 -16 24 0 -9 -5 -19 -11 -22 -7
-5 -9 6 -6 31 2 22 9 38 14 37 6 -1 16 3 22 10 7 10 5 13 -8 14 -9 1 -23 -7
-29 -18z"/>
<path d="M1997 473 c-4 -3 -7 -18 -7 -32 0 -36 -11 -71 -21 -71 -5 0 -7 11 -3
25 4 16 2 25 -6 25 -7 0 -10 -6 -7 -13 3 -8 -1 -14 -9 -15 -8 -1 -21 -3 -29
-4 -8 -1 -14 -8 -13 -17 2 -9 -2 -15 -9 -14 -7 2 -6 -8 4 -30 22 -43 25 -46
22 -17 -6 64 4 78 40 56 21 -14 51 32 49 77 -1 40 -1 40 -11 30z"/>
<path d="M787 463 c-4 -3 -7 -21 -7 -39 0 -27 4 -32 20 -31 24 2 25 10 6 26
-8 7 -13 21 -11 32 4 20 2 23 -8 12z"/>
<path d="M545 450 c-5 -9 -4 -15 3 -18 7 -2 12 -10 12 -18 0 -8 6 -11 15 -8 8
4 15 10 15 16 0 5 -5 6 -10 3 -6 -3 -14 4 -18 16 -7 17 -11 19 -17 9z"/>
<path d="M665 437 c-4 -12 -7 -26 -6 -30 1 -5 -3 -6 -7 -3 -11 7 -48 -32 -39
-40 4 -4 9 1 13 10 3 9 10 16 16 16 5 0 6 -5 3 -11 -4 -6 2 -5 13 2 11 7 18
19 15 26 -3 7 0 20 6 27 7 9 8 17 3 20 -6 3 -13 -4 -17 -17z"/>
<path d="M750 441 c0 -4 -11 -7 -25 -6 -17 2 -25 -2 -25 -12 0 -10 6 -13 16
-9 9 3 22 6 29 6 7 0 15 7 19 15 3 8 1 15 -4 15 -6 0 -10 -4 -10 -9z"/>
<path d="M488 403 c-11 -14 -11 -15 1 -8 11 6 13 4 7 -10 -7 -18 -6 -18 14 0
21 19 29 8 8 -13 -7 -7 -8 -12 -2 -12 5 0 14 8 21 19 10 16 8 20 -12 29 -19 9
-26 8 -37 -5z"/>
<path d="M1296 398 c3 -5 -2 -11 -10 -14 -19 -7 -21 -20 -3 -27 7 -3 20 7 28
22 14 25 14 27 -2 27 -10 0 -15 -4 -13 -8z"/>
<path d="M666 355 c-18 -28 -20 -41 -7 -50 6 -3 8 4 6 15 -2 11 0 20 6 20 5 0
9 -10 9 -23 0 -24 47 -77 68 -77 7 0 -4 15 -24 34 -28 26 -36 42 -37 70 -1 20
-2 36 -3 36 -1 0 -9 -11 -18 -25z"/>
<path d="M734 369 c-5 -8 -10 -23 -11 -34 -3 -18 -2 -18 8 -2 5 9 17 17 26 17
14 0 14 -2 -1 -19 -16 -18 -16 -21 -1 -50 18 -37 28 -41 15 -7 -7 20 -7 41 0
66 1 3 5 -4 10 -15 6 -15 8 -11 7 17 -2 29 -5 34 -15 25 -10 -8 -16 -7 -22 2
-6 11 -9 11 -16 0z"/>
<path d="M1236 364 c-11 -30 -6 -86 11 -115 23 -38 31 -37 25 3 -4 27 -6 29
-12 13 -12 -33 -21 38 -10 77 12 40 12 38 1 38 -5 0 -12 -7 -15 -16z"/>
<path d="M1392 344 c-20 -20 -31 -32 -23 -28 11 6 13 3 7 -12 -5 -14 -4 -16 4
-8 6 6 13 19 14 29 1 9 13 26 27 36 13 10 21 19 16 19 -4 0 -24 -16 -45 -36z"/>
<path d="M1477 344 c-21 -28 -22 -44 -1 -44 10 0 14 -6 11 -15 -4 -8 -2 -17 3
-20 5 -3 12 6 15 20 3 14 7 36 10 49 7 33 -16 39 -38 10z"/>
<path d="M825 235 c0 -24 2 -41 4 -39 2 2 10 -1 17 -7 8 -7 14 -7 19 1 4 6 1
9 -6 8 -8 -2 -15 12 -19 35 -10 52 -16 53 -15 2z"/>
<path d="M2120 245 c0 -9 -3 -14 -7 -12 -5 3 -9 -14 -9 -37 l-2 -41 18 50 c9
27 19 44 23 37 4 -8 5 -9 3 0 -4 19 -26 22 -26 3z"/>
<path d="M1413 227 c-18 -38 -16 -52 3 -33 8 9 14 26 12 38 -3 21 -4 21 -15
-5z"/>
<path d="M1448 233 c-9 -33 3 -83 19 -83 11 0 13 -7 9 -24 -3 -14 -2 -28 4
-31 6 -4 7 1 3 11 -4 12 -3 15 5 10 9 -5 10 -1 3 16 -5 13 -8 43 -7 66 1 23
-1 37 -5 31 -4 -8 -10 -6 -16 6 -9 16 -10 16 -15 -2z"/>
<path d="M1761 206 c-18 -28 -21 -40 -12 -49 6 -6 11 -20 12 -32 1 -15 3 -13
9 8 5 16 13 34 19 41 6 7 7 24 3 41 l-8 29 -23 -38z"/>
<path d="M2019 213 c6 -12 11 -31 11 -43 0 -12 4 -18 10 -15 6 4 8 10 5 15 -3
4 0 10 7 12 10 4 10 10 0 29 -8 14 -10 16 -7 5 6 -20 6 -20 -16 0 -22 19 -22
19 -10 -3z"/>
<path d="M1884 198 c-3 -13 -16 -36 -26 -53 -19 -28 -19 -28 11 4 17 18 31 42
31 52 0 26 -7 24 -16 -3z"/>
<path d="M1080 170 c0 -24 48 -76 58 -65 4 4 1 10 -6 12 -6 3 -10 9 -6 14 3 5
0 8 -8 7 -8 -2 -14 8 -16 25 -4 31 -22 37 -22 7z"/>
<path d="M1378 149 c2 -16 8 -29 13 -29 14 0 10 47 -4 53 -10 4 -12 -3 -9 -24z"/>
<path d="M1691 134 c-14 -31 -14 -44 -1 -44 6 0 10 12 10 26 0 14 4 23 10 19
6 -3 10 -2 10 4 0 22 -18 19 -29 -5z"/>
</g>
</svg>
